<svg enable-background="new 0 0 581.368 120" height="120" viewBox="0 0 581.368 120" width="581.368" xmlns="http://www.w3.org/2000/svg"><path d="m519.965 17.824c-.359 0-.688 0-.734.004-.043.008-.223.031-.398.055-.18.027-.453.078-.609.117-.156.035-.398.105-.539.148-.137.047-.359.129-.496.184-.133.054-.348.152-.473.215-.125.062-.32.168-.434.234-.109.063-.301.184-.418.266-.121.082-.316.23-.438.324-.121.098-.336.289-.477.426-.145.14-.344.347-.441.461-.094.113-.246.3-.336.418-.086.117-.223.316-.305.445s-.211.359-.289.512c-.082.152-.191.386-.246.515-.055.133-.148.391-.211.574l-.109.332-15.023 30.344c-13.512 27.293-15.047 30.379-15.242 30.68-.121.184-.281.445-.355.582-.074.133-.188.359-.254.504s-.164.395-.223.555-.145.449-.191.641c-.051.191-.113.492-.141.676-.047.293-.055.414-.055 1.051 0 .633.008.762.051 1.043.031.18.082.453.121.609s.113.414.164.57.141.395.195.527c.055.129.172.375.258.543.09.172.246.441.355.605.109.16.281.402.383.531.105.129.344.395.535.582.191.191.445.426.563.52.121.094.301.23.402.301.102.066.281.184.398.254.117.074.324.188.461.254.137.07.34.164.453.211.109.047.32.125.465.172.145.051.406.125.582.168.18.047.461.102.633.129.227.035.465.051.887.059.371.008.676.004.848-.016.148-.016.391-.047.535-.07.145-.027.367-.074.492-.105s.359-.098.516-.148.402-.145.547-.207c.148-.063.383-.172.52-.246.141-.07.355-.195.48-.273s.32-.215.438-.301.32-.25.453-.363c.129-.113.34-.313.461-.441.121-.125.297-.324.387-.441.094-.117.25-.324.344-.461.094-.141.238-.367.316-.508.082-.137.203-.379.273-.539.074-.156.16-.363.195-.457.039-.094.113-.324.172-.508l.102-.336 12.199-24.625c6.707-13.547 12.203-24.629 12.211-24.629.004 0 5.672 11.234 12.59 24.965 6.918 13.727 12.617 25.063 12.664 25.191.047.125.137.336.195.465.063.129.176.344.254.48s.211.352.297.48.242.336.344.465c.102.125.289.34.422.477.129.137.348.344.488.461.141.121.352.285.469.371.117.082.316.215.441.293s.395.227.598.324c.199.098.496.227.656.285s.402.137.535.172c.133.039.367.094.523.125.152.031.43.074.609.094.262.031.461.039.93.027.445-.008.676-.023.906-.059.172-.027.453-.082.629-.125.18-.047.422-.113.539-.152.121-.039.332-.121.473-.176.137-.059.395-.176.57-.266.172-.09.453-.254.617-.363.164-.105.406-.281.535-.383.133-.105.352-.301.492-.434.141-.137.344-.352.453-.477s.266-.32.348-.43c.078-.113.215-.313.301-.449.086-.133.223-.375.305-.531.078-.156.184-.379.23-.492s.125-.324.176-.473c.047-.145.125-.406.168-.582s.102-.461.129-.633c.035-.227.051-.465.059-.887.008-.371.004-.676-.016-.848-.016-.148-.047-.387-.074-.531-.023-.141-.078-.395-.121-.563-.043-.164-.117-.41-.16-.539-.047-.133-.133-.352-.188-.484s-.164-.352-.234-.492c-.074-.137-.203-.359-.285-.492s-.238-.355-.348-.492c-.148-.195-.25-.359-.422-.699-.125-.246-7.027-13.98-15.34-30.516-8.313-16.539-15.152-30.171-15.203-30.296-.055-.129-.16-.368-.242-.532-.078-.164-.211-.406-.289-.539-.082-.133-.215-.332-.293-.445-.082-.113-.25-.328-.371-.473-.121-.144-.336-.375-.477-.508-.141-.136-.367-.335-.5-.445-.137-.105-.359-.269-.5-.363-.137-.094-.363-.231-.5-.305-.137-.078-.375-.195-.531-.265-.152-.071-.418-.176-.586-.235-.168-.058-.453-.14-.629-.183s-.461-.102-.629-.129c-.25-.04-.437-.048-.965-.056z" fill="#de1f26"/><g fill="#2b347c"><path d="m11.008 21.39c-1.277-1.277-2.75-1.964-4.519-1.964-1.77 0-3.344.687-4.621 1.964-1.278 1.278-1.868 2.754-1.868 4.52 0 1.769.59 3.344 1.868 4.621 1.277 1.277 2.851 1.867 4.621 1.867 1.769 0 3.242-.59 4.519-1.867 1.278-1.277 1.965-2.852 1.965-4.621 0-1.766-.687-3.242-1.965-4.52zm-8.156 21.129c-.984.985-1.375 2.164-1.375 3.637v43.734c0 1.477.391 2.656 1.375 3.637.984.984 2.16 1.379 3.637 1.379 1.472 0 2.652-.395 3.636-1.379.883-.98 1.375-2.16 1.375-3.637v-43.734c0-1.473-.492-2.652-1.375-3.637-.984-.883-2.164-1.375-3.636-1.375-1.477 0-2.653.492-3.637 1.375z"/><path d="m75.282 95.199c1.375 0 2.554-.492 3.535-1.473.984-.984 1.379-2.164 1.379-3.539v-25.257c0-6.878-2.457-12.777-7.274-17.691-4.914-4.914-10.91-7.371-17.789-7.371-6.98 0-12.875 2.457-17.789 7.371s-7.371 10.813-7.371 17.691v25.258c0 1.375.492 2.555 1.473 3.539.984.98 2.164 1.375 3.441 1.375 1.375 0 2.555-.395 3.539-1.375.981-.984 1.375-2.164 1.375-3.539v-25.258c0-4.129 1.571-7.766 4.52-10.714 2.949-3.043 6.586-4.52 10.812-4.52 4.227 0 7.762 1.477 10.809 4.52 2.949 2.949 4.426 6.585 4.426 10.714v25.355c0 1.277.488 2.457 1.472 3.441.985.981 2.16 1.473 3.442 1.473z"/><path d="m126.961 42.816c-3.339-1.375-7.175-2.062-11.398-2.062-3.539 0-6.781.59-9.828 1.668-3.149 1.179-5.606 2.851-7.473 5.011-1.965 2.262-2.848 5.016-2.848 8.161 0 7.96 6.29 13.167 18.868 15.527 4.816.984 8.257 2.063 10.32 3.441 1.965 1.375 3.047 3.043 3.047 5.012 0 2.16-1.082 3.832-3.145 5.012-2.062 1.277-4.914 1.867-8.648 1.867-2.852 0-5.504-.492-7.961-1.477-2.555-.98-4.422-2.258-5.602-3.633-1.179-1.18-2.457-1.77-3.734-1.77-1.082 0-2.262.488-3.441 1.375-1.375.984-1.965 2.262-1.965 3.832 0 1.18.394 2.262 1.277 3.047 2.164 2.262 5.309 4.031 9.238 5.406 3.934 1.375 8.059 2.063 12.582 2.063 4.422 0 8.254-.688 11.399-2.063 3.144-1.375 5.601-3.344 7.273-5.801 1.574-2.457 2.457-5.207 2.457-8.254 0-4.031-1.574-7.371-4.519-9.926-2.949-2.555-8.059-4.52-15.137-5.996-3.539-.688-6.191-1.375-7.961-2.16-1.867-.789-3.144-1.574-3.734-2.457-.688-.886-.985-1.968-.985-3.343 0-1.77.887-3.243 2.852-4.227 1.965-.98 4.422-1.57 7.469-1.57 2.554 0 4.816.39 6.683.98 1.77.59 3.539 1.672 5.211 3.149 1.375 1.277 2.848 1.867 4.617 1.867 1.082 0 1.965-.199 2.754-.789 1.078-.883 1.668-1.867 1.668-3.047 0-.981-.492-2.063-1.277-3.145-1.965-2.358-4.715-4.323-8.059-5.698z"/><path d="m192.926 49.597c-5.109-5.898-11.597-8.843-19.262-8.843-5.113 0-9.73 1.179-13.761 3.535-4.125 2.359-7.27 5.601-9.531 9.73-2.262 4.129-3.344 8.848-3.344 14.055 0 5.109 1.082 9.828 3.441 13.957 2.36 4.125 5.602 7.371 9.731 9.727 4.129 2.359 8.746 3.539 13.957 3.539 7.074 0 12.972-2.16 17.687-6.582.789-.789 1.18-1.672 1.18-2.656 0-1.277-.688-2.457-1.867-3.539-.785-.586-1.672-.883-2.555-.883-1.18 0-2.457.492-3.637 1.375-2.75 2.359-6.386 3.441-10.808 3.441-3.442 0-6.489-.785-9.141-2.359-2.656-1.574-4.719-3.734-6.191-6.488-1.477-2.75-2.164-5.992-2.164-9.531 0-5.504 1.574-10.023 4.718-13.367 3.145-3.34 7.172-5.11 12.285-5.11 2.458 0 4.618.493 6.582 1.278 1.969.785 3.739 2.062 5.407 3.832.984 1.179 2.261 1.769 3.832 1.769.789 0 1.574-.195 2.261-.687 1.376-.985 2.165-2.16 2.165-3.637 0-.981-.395-1.77-.985-2.556z"/><path d="m238.606 39.672c-8.258 0-15.234 2.949-21.129 8.746-5.801 5.797-8.652 12.777-8.652 21.031v20.738c0 1.375.394 2.457 1.379 3.34.882.984 1.964 1.379 3.339 1.379 1.278 0 2.36-.395 3.243-1.379.984-.883 1.476-1.965 1.476-3.34v-20.738c0-5.602 1.965-10.418 5.895-14.348 4.031-4.031 8.847-5.996 14.449-5.996 1.277 0 2.359-.492 3.34-1.375.886-.984 1.379-2.063 1.379-3.34 0-1.281-.493-2.457-1.379-3.343-.981-.883-2.063-1.375-3.34-1.375z"/><path d="m266.668 21.39c-1.277-1.277-2.75-1.964-4.519-1.964-1.77 0-3.344.687-4.621 1.964-1.278 1.278-1.867 2.754-1.867 4.52 0 1.769.589 3.344 1.867 4.621 1.277 1.277 2.851 1.867 4.621 1.867 1.769 0 3.242-.59 4.519-1.867 1.278-1.277 1.965-2.852 1.965-4.621 0-1.766-.687-3.242-1.965-4.52zm-8.156 21.129c-.984.985-1.375 2.164-1.375 3.637v43.734c0 1.477.391 2.656 1.375 3.637.984.984 2.16 1.379 3.637 1.379 1.473 0 2.652-.395 3.637-1.379.882-.98 1.375-2.16 1.375-3.637v-43.734c0-1.473-.493-2.652-1.375-3.637-.985-.883-2.164-1.375-3.637-1.375-1.477 0-2.653.492-3.637 1.375z"/><path d="m312.856 85.961c-4.914 0-9.141-1.77-12.578-5.207-3.539-3.539-5.211-7.766-5.211-12.68 0-3.145.789-6.191 2.359-8.945 1.574-2.75 3.734-4.914 6.488-6.485 2.75-1.574 5.699-2.359 8.941-2.359 4.914 0 9.141 1.769 12.582 5.211 3.535 3.535 5.305 7.664 5.305 12.578s-1.77 9.141-5.305 12.68c-3.44 3.437-7.667 5.207-12.581 5.207zm19.262-37.149c-5.305-5.308-11.695-7.961-19.262-7.961s-13.953 2.653-19.262 7.961c-5.308 5.305-7.961 11.793-7.961 19.262v45.207c0 1.379.395 2.457 1.375 3.344.887.98 1.965 1.375 3.344 1.375 1.277 0 2.355-.395 3.242-1.375.98-.887 1.473-1.965 1.473-3.344v-24.566c5.012 4.422 11.008 6.68 17.789 6.68 7.566 0 13.957-2.652 19.262-7.961 5.309-5.402 8.063-11.793 8.063-19.359-.001-7.47-2.755-13.958-8.063-19.263z"/><path d="m376.872 85.078c-2.852 0-5.309-.984-7.273-3.047-2.063-1.969-3.047-4.426-3.047-7.273v-23.098h8.746c1.18 0 2.262-.391 3.145-1.277.789-.786 1.281-1.868 1.281-3.145 0-1.18-.492-2.262-1.281-3.144-.883-.786-1.965-1.278-3.145-1.278h-8.746v-13.859c0-1.375-.492-2.457-1.473-3.438-.984-.984-2.066-1.476-3.441-1.476s-2.555.492-3.539 1.476c-.98.981-1.375 2.063-1.375 3.438v45.801c0 5.602 1.965 10.32 5.898 14.25 3.93 3.93 8.648 5.898 14.25 5.898 1.375 0 2.457-.395 3.438-1.379.984-.98 1.477-2.16 1.477-3.535 0-1.379-.492-2.457-1.477-3.441-.981-.985-2.063-1.473-3.438-1.473z"/><path d="m417.719 85.863c-4.914 0-9.141-1.672-12.582-5.211-3.539-3.438-5.207-7.664-5.207-12.578s1.668-9.141 5.207-12.578c3.441-3.539 7.668-5.309 12.582-5.309s9.137 1.77 12.578 5.309c3.539 3.438 5.309 7.664 5.309 12.578s-1.77 9.141-5.309 12.578c-3.441 3.539-7.664 5.211-12.578 5.211zm19.262-37.051c-5.309-5.308-11.695-8.058-19.262-8.058-7.473 0-13.957 2.75-19.266 8.058-5.305 5.305-7.961 11.696-7.961 19.262s2.656 13.957 7.961 19.262c5.309 5.309 11.793 7.961 19.266 7.961 6.781 0 12.773-2.16 17.887-6.582v1.867c0 1.375.391 2.457 1.375 3.34.883.984 1.965 1.375 3.34 1.375 1.277 0 2.359-.391 3.344-1.375.883-.883 1.375-1.965 1.375-3.34v-22.508c0-7.566-2.653-13.957-8.059-19.262z"/><path d="m579.399 21.39c-1.277-1.277-2.75-1.964-4.52-1.964s-3.34.687-4.617 1.964c-1.277 1.278-1.867 2.754-1.867 4.52 0 1.769.59 3.344 1.867 4.621s2.848 1.867 4.617 1.867 3.242-.59 4.52-1.867c1.281-1.277 1.969-2.852 1.969-4.621 0-1.766-.688-3.242-1.969-4.52zm-8.156 21.129c-.98.985-1.375 2.164-1.375 3.637v43.734c0 1.477.395 2.656 1.375 3.637.984.984 2.164 1.379 3.637 1.379 1.477 0 2.652-.395 3.637-1.379.883-.98 1.375-2.16 1.375-3.637v-43.734c0-1.473-.492-2.652-1.375-3.637-.984-.883-2.16-1.375-3.637-1.375-1.473 0-2.653.492-3.637 1.375z"/></g></svg>