<?xml version="1.0" encoding="utf-8"?>
<!-- Generator: Adobe Illustrator 15.0.0, SVG Export Plug-In . SVG Version: 6.00 Build 0)  -->
<!DOCTYPE svg PUBLIC "-//W3C//DTD SVG 1.1//EN" "http://www.w3.org/Graphics/SVG/1.1/DTD/svg11.dtd">
<svg version="1.1" id="Layer_1" xmlns="http://www.w3.org/2000/svg" xmlns:xlink="http://www.w3.org/1999/xlink" x="0px" y="0px"
	 width="581.368px" height="120px" viewBox="0 0 581.368 120" enable-background="new 0 0 581.368 120" xml:space="preserve">
<g>
	<path fill="#DE1F26" d="M519.965,17.824c-0.359,0-0.688,0-0.734,0.004c-0.043,0.008-0.223,0.031-0.398,0.055
		c-0.18,0.027-0.453,0.078-0.609,0.117c-0.156,0.035-0.398,0.105-0.539,0.148c-0.137,0.047-0.359,0.129-0.496,0.184
		c-0.133,0.054-0.348,0.152-0.473,0.215c-0.125,0.062-0.32,0.168-0.434,0.234c-0.109,0.063-0.301,0.184-0.418,0.266
		c-0.121,0.082-0.316,0.23-0.438,0.324c-0.121,0.098-0.336,0.289-0.477,0.426c-0.145,0.14-0.344,0.347-0.441,0.461
		c-0.094,0.113-0.246,0.3-0.336,0.418c-0.086,0.117-0.223,0.316-0.305,0.445s-0.211,0.359-0.289,0.512
		c-0.082,0.152-0.191,0.386-0.246,0.515c-0.055,0.133-0.148,0.391-0.211,0.574l-0.109,0.332l-15.023,30.344
		c-13.512,27.293-15.047,30.379-15.242,30.68c-0.121,0.184-0.281,0.445-0.355,0.582c-0.074,0.133-0.188,0.359-0.254,0.504
		s-0.164,0.395-0.223,0.555s-0.145,0.449-0.191,0.641c-0.051,0.191-0.113,0.492-0.141,0.676c-0.047,0.293-0.055,0.414-0.055,1.051
		c0,0.633,0.008,0.762,0.051,1.043c0.031,0.18,0.082,0.453,0.121,0.609s0.113,0.414,0.164,0.57s0.141,0.395,0.195,0.527
		c0.055,0.129,0.172,0.375,0.258,0.543c0.09,0.172,0.246,0.441,0.355,0.605c0.109,0.16,0.281,0.402,0.383,0.531
		c0.105,0.129,0.344,0.395,0.535,0.582c0.191,0.191,0.445,0.426,0.563,0.52c0.121,0.094,0.301,0.23,0.402,0.301
		c0.102,0.066,0.281,0.184,0.398,0.254c0.117,0.074,0.324,0.188,0.461,0.254c0.137,0.07,0.34,0.164,0.453,0.211
		c0.109,0.047,0.32,0.125,0.465,0.172c0.145,0.051,0.406,0.125,0.582,0.168c0.18,0.047,0.461,0.102,0.633,0.129
		c0.227,0.035,0.465,0.051,0.887,0.059c0.371,0.008,0.676,0.004,0.848-0.016c0.148-0.016,0.391-0.047,0.535-0.07
		c0.145-0.027,0.367-0.074,0.492-0.105s0.359-0.098,0.516-0.148s0.402-0.145,0.547-0.207c0.148-0.063,0.383-0.172,0.52-0.246
		c0.141-0.07,0.355-0.195,0.48-0.273s0.32-0.215,0.438-0.301s0.32-0.25,0.453-0.363c0.129-0.113,0.34-0.313,0.461-0.441
		c0.121-0.125,0.297-0.324,0.387-0.441c0.094-0.117,0.25-0.324,0.344-0.461c0.094-0.141,0.238-0.367,0.316-0.508
		c0.082-0.137,0.203-0.379,0.273-0.539c0.074-0.156,0.16-0.363,0.195-0.457c0.039-0.094,0.113-0.324,0.172-0.508l0.102-0.336
		l12.199-24.625c6.707-13.547,12.203-24.629,12.211-24.629c0.004,0,5.672,11.234,12.59,24.965
		c6.918,13.727,12.617,25.063,12.664,25.191c0.047,0.125,0.137,0.336,0.195,0.465c0.063,0.129,0.176,0.344,0.254,0.48
		s0.211,0.352,0.297,0.48s0.242,0.336,0.344,0.465c0.102,0.125,0.289,0.34,0.422,0.477c0.129,0.137,0.348,0.344,0.488,0.461
		c0.141,0.121,0.352,0.285,0.469,0.371c0.117,0.082,0.316,0.215,0.441,0.293s0.395,0.227,0.598,0.324
		c0.199,0.098,0.496,0.227,0.656,0.285s0.402,0.137,0.535,0.172c0.133,0.039,0.367,0.094,0.523,0.125
		c0.152,0.031,0.43,0.074,0.609,0.094c0.262,0.031,0.461,0.039,0.93,0.027c0.445-0.008,0.676-0.023,0.906-0.059
		c0.172-0.027,0.453-0.082,0.629-0.125c0.18-0.047,0.422-0.113,0.539-0.152c0.121-0.039,0.332-0.121,0.473-0.176
		c0.137-0.059,0.395-0.176,0.57-0.266c0.172-0.09,0.453-0.254,0.617-0.363c0.164-0.105,0.406-0.281,0.535-0.383
		c0.133-0.105,0.352-0.301,0.492-0.434c0.141-0.137,0.344-0.352,0.453-0.477s0.266-0.32,0.348-0.43
		c0.078-0.113,0.215-0.313,0.301-0.449c0.086-0.133,0.223-0.375,0.305-0.531c0.078-0.156,0.184-0.379,0.23-0.492
		s0.125-0.324,0.176-0.473c0.047-0.145,0.125-0.406,0.168-0.582s0.102-0.461,0.129-0.633c0.035-0.227,0.051-0.465,0.059-0.887
		c0.008-0.371,0.004-0.676-0.016-0.848c-0.016-0.148-0.047-0.387-0.074-0.531c-0.023-0.141-0.078-0.395-0.121-0.563
		c-0.043-0.164-0.117-0.41-0.16-0.539c-0.047-0.133-0.133-0.352-0.188-0.484s-0.164-0.352-0.234-0.492
		c-0.074-0.137-0.203-0.359-0.285-0.492s-0.238-0.355-0.348-0.492c-0.148-0.195-0.25-0.359-0.422-0.699
		c-0.125-0.246-7.027-13.98-15.34-30.516c-8.313-16.539-15.152-30.171-15.203-30.296c-0.055-0.129-0.16-0.368-0.242-0.532
		c-0.078-0.164-0.211-0.406-0.289-0.539c-0.082-0.133-0.215-0.332-0.293-0.445c-0.082-0.113-0.25-0.328-0.371-0.473
		c-0.121-0.144-0.336-0.375-0.477-0.508c-0.141-0.136-0.367-0.335-0.5-0.445c-0.137-0.105-0.359-0.269-0.5-0.363
		c-0.137-0.094-0.363-0.231-0.5-0.305c-0.137-0.078-0.375-0.195-0.531-0.265c-0.152-0.071-0.418-0.176-0.586-0.235
		c-0.168-0.058-0.453-0.14-0.629-0.183s-0.461-0.102-0.629-0.129C520.68,17.84,520.493,17.832,519.965,17.824z"/>
	<path fill="#2B347C" d="M11.008,21.39c-1.277-1.277-2.75-1.964-4.519-1.964c-1.77,0-3.344,0.687-4.621,1.964
		C0.59,22.668,0,24.144,0,25.91c0,1.769,0.59,3.344,1.868,4.621c1.277,1.277,2.851,1.867,4.621,1.867
		c1.769,0,3.242-0.59,4.519-1.867c1.278-1.277,1.965-2.852,1.965-4.621C12.973,24.144,12.286,22.668,11.008,21.39z M2.852,42.519
		c-0.984,0.985-1.375,2.164-1.375,3.637v43.734c0,1.477,0.391,2.656,1.375,3.637c0.984,0.984,2.16,1.379,3.637,1.379
		c1.472,0,2.652-0.395,3.636-1.379c0.883-0.98,1.375-2.16,1.375-3.637V46.156c0-1.473-0.492-2.652-1.375-3.637
		c-0.984-0.883-2.164-1.375-3.636-1.375C5.012,41.144,3.836,41.636,2.852,42.519z"/>
	<path fill="#2B347C" d="M75.282,95.199c1.375,0,2.554-0.492,3.535-1.473c0.984-0.984,1.379-2.164,1.379-3.539V64.93
		c0-6.878-2.457-12.777-7.274-17.691c-4.914-4.914-10.91-7.371-17.789-7.371c-6.98,0-12.875,2.457-17.789,7.371
		s-7.371,10.813-7.371,17.691v25.258c0,1.375,0.492,2.555,1.473,3.539c0.984,0.98,2.164,1.375,3.441,1.375
		c1.375,0,2.555-0.395,3.539-1.375c0.981-0.984,1.375-2.164,1.375-3.539V64.93c0-4.129,1.571-7.766,4.52-10.714
		c2.949-3.043,6.586-4.52,10.812-4.52c4.227,0,7.762,1.477,10.809,4.52c2.949,2.949,4.426,6.585,4.426,10.714v25.355
		c0,1.277,0.488,2.457,1.472,3.441C72.825,94.707,74,95.199,75.282,95.199z"/>
	<path fill="#2B347C" d="M126.961,42.816c-3.339-1.375-7.175-2.062-11.398-2.062c-3.539,0-6.781,0.59-9.828,1.668
		c-3.149,1.179-5.606,2.851-7.473,5.011c-1.965,2.262-2.848,5.016-2.848,8.161c0,7.96,6.29,13.167,18.868,15.527
		c4.816,0.984,8.257,2.063,10.32,3.441c1.965,1.375,3.047,3.043,3.047,5.012c0,2.16-1.082,3.832-3.145,5.012
		c-2.062,1.277-4.914,1.867-8.648,1.867c-2.852,0-5.504-0.492-7.961-1.477c-2.555-0.98-4.422-2.258-5.602-3.633
		c-1.179-1.18-2.457-1.77-3.734-1.77c-1.082,0-2.262,0.488-3.441,1.375c-1.375,0.984-1.965,2.262-1.965,3.832
		c0,1.18,0.394,2.262,1.277,3.047c2.164,2.262,5.309,4.031,9.238,5.406c3.934,1.375,8.059,2.063,12.582,2.063
		c4.422,0,8.254-0.688,11.399-2.063c3.144-1.375,5.601-3.344,7.273-5.801c1.574-2.457,2.457-5.207,2.457-8.254
		c0-4.031-1.574-7.371-4.519-9.926c-2.949-2.555-8.059-4.52-15.137-5.996c-3.539-0.688-6.191-1.375-7.961-2.16
		c-1.867-0.789-3.144-1.574-3.734-2.457c-0.688-0.886-0.985-1.968-0.985-3.343c0-1.77,0.887-3.243,2.852-4.227
		c1.965-0.98,4.422-1.57,7.469-1.57c2.554,0,4.816,0.39,6.683,0.98c1.77,0.59,3.539,1.672,5.211,3.149
		c1.375,1.277,2.848,1.867,4.617,1.867c1.082,0,1.965-0.199,2.754-0.789c1.078-0.883,1.668-1.867,1.668-3.047
		c0-0.981-0.492-2.063-1.277-3.145C133.055,46.156,130.305,44.191,126.961,42.816z"/>
	<path fill="#2B347C" d="M192.926,49.597c-5.109-5.898-11.597-8.843-19.262-8.843c-5.113,0-9.73,1.179-13.761,3.535
		c-4.125,2.359-7.27,5.601-9.531,9.73c-2.262,4.129-3.344,8.848-3.344,14.055c0,5.109,1.082,9.828,3.441,13.957
		c2.36,4.125,5.602,7.371,9.731,9.727c4.129,2.359,8.746,3.539,13.957,3.539c7.074,0,12.972-2.16,17.687-6.582
		c0.789-0.789,1.18-1.672,1.18-2.656c0-1.277-0.688-2.457-1.867-3.539c-0.785-0.586-1.672-0.883-2.555-0.883
		c-1.18,0-2.457,0.492-3.637,1.375c-2.75,2.359-6.386,3.441-10.808,3.441c-3.442,0-6.489-0.785-9.141-2.359
		c-2.656-1.574-4.719-3.734-6.191-6.488c-1.477-2.75-2.164-5.992-2.164-9.531c0-5.504,1.574-10.023,4.718-13.367
		c3.145-3.34,7.172-5.11,12.285-5.11c2.458,0,4.618,0.493,6.582,1.278c1.969,0.785,3.739,2.062,5.407,3.832
		c0.984,1.179,2.261,1.769,3.832,1.769c0.789,0,1.574-0.195,2.261-0.687c1.376-0.985,2.165-2.16,2.165-3.637
		C193.911,51.172,193.516,50.383,192.926,49.597z"/>
	<path fill="#2B347C" d="M238.606,39.672c-8.258,0-15.234,2.949-21.129,8.746c-5.801,5.797-8.652,12.777-8.652,21.031v20.738
		c0,1.375,0.394,2.457,1.379,3.34c0.882,0.984,1.964,1.379,3.339,1.379c1.278,0,2.36-0.395,3.243-1.379
		c0.984-0.883,1.476-1.965,1.476-3.34V69.449c0-5.602,1.965-10.418,5.895-14.348c4.031-4.031,8.847-5.996,14.449-5.996
		c1.277,0,2.359-0.492,3.34-1.375c0.886-0.984,1.379-2.063,1.379-3.34c0-1.281-0.493-2.457-1.379-3.343
		C240.965,40.164,239.883,39.672,238.606,39.672z"/>
	<path fill="#2B347C" d="M266.668,21.39c-1.277-1.277-2.75-1.964-4.519-1.964c-1.77,0-3.344,0.687-4.621,1.964
		c-1.278,1.278-1.867,2.754-1.867,4.52c0,1.769,0.589,3.344,1.867,4.621c1.277,1.277,2.851,1.867,4.621,1.867
		c1.769,0,3.242-0.59,4.519-1.867c1.278-1.277,1.965-2.852,1.965-4.621C268.633,24.144,267.946,22.668,266.668,21.39z
		 M258.512,42.519c-0.984,0.985-1.375,2.164-1.375,3.637v43.734c0,1.477,0.391,2.656,1.375,3.637
		c0.984,0.984,2.16,1.379,3.637,1.379c1.473,0,2.652-0.395,3.637-1.379c0.882-0.98,1.375-2.16,1.375-3.637V46.156
		c0-1.473-0.493-2.652-1.375-3.637c-0.985-0.883-2.164-1.375-3.637-1.375C260.672,41.144,259.496,41.636,258.512,42.519z"/>
	<path fill="#2B347C" d="M312.856,85.961c-4.914,0-9.141-1.77-12.578-5.207c-3.539-3.539-5.211-7.766-5.211-12.68
		c0-3.145,0.789-6.191,2.359-8.945c1.574-2.75,3.734-4.914,6.488-6.485c2.75-1.574,5.699-2.359,8.941-2.359
		c4.914,0,9.141,1.769,12.582,5.211c3.535,3.535,5.305,7.664,5.305,12.578s-1.77,9.141-5.305,12.68
		C321.997,84.191,317.77,85.961,312.856,85.961z M332.118,48.812c-5.305-5.308-11.695-7.961-19.262-7.961
		s-13.953,2.653-19.262,7.961c-5.308,5.305-7.961,11.793-7.961,19.262v45.207c0,1.379,0.395,2.457,1.375,3.344
		c0.887,0.98,1.965,1.375,3.344,1.375c1.277,0,2.355-0.395,3.242-1.375c0.98-0.887,1.473-1.965,1.473-3.344V88.715
		c5.012,4.422,11.008,6.68,17.789,6.68c7.566,0,13.957-2.652,19.262-7.961c5.309-5.402,8.063-11.793,8.063-19.359
		C340.18,60.605,337.426,54.117,332.118,48.812z"/>
	<path fill="#2B347C" d="M376.872,85.078c-2.852,0-5.309-0.984-7.273-3.047c-2.063-1.969-3.047-4.426-3.047-7.273V51.66h8.746
		c1.18,0,2.262-0.391,3.145-1.277c0.789-0.786,1.281-1.868,1.281-3.145c0-1.18-0.492-2.262-1.281-3.144
		c-0.883-0.786-1.965-1.278-3.145-1.278h-8.746V28.957c0-1.375-0.492-2.457-1.473-3.438c-0.984-0.984-2.066-1.476-3.441-1.476
		s-2.555,0.492-3.539,1.476c-0.98,0.981-1.375,2.063-1.375,3.438v45.801c0,5.602,1.965,10.32,5.898,14.25
		c3.93,3.93,8.648,5.898,14.25,5.898c1.375,0,2.457-0.395,3.438-1.379c0.984-0.98,1.477-2.16,1.477-3.535
		c0-1.379-0.492-2.457-1.477-3.441C379.329,85.566,378.247,85.078,376.872,85.078z"/>
	<path fill="#2B347C" d="M417.719,85.863c-4.914,0-9.141-1.672-12.582-5.211c-3.539-3.438-5.207-7.664-5.207-12.578
		s1.668-9.141,5.207-12.578c3.441-3.539,7.668-5.309,12.582-5.309s9.137,1.77,12.578,5.309c3.539,3.438,5.309,7.664,5.309,12.578
		s-1.77,9.141-5.309,12.578C426.856,84.191,422.633,85.863,417.719,85.863z M436.981,48.812c-5.309-5.308-11.695-8.058-19.262-8.058
		c-7.473,0-13.957,2.75-19.266,8.058c-5.305,5.305-7.961,11.696-7.961,19.262s2.656,13.957,7.961,19.262
		c5.309,5.309,11.793,7.961,19.266,7.961c6.781,0,12.773-2.16,17.887-6.582v1.867c0,1.375,0.391,2.457,1.375,3.34
		c0.883,0.984,1.965,1.375,3.34,1.375c1.277,0,2.359-0.391,3.344-1.375c0.883-0.883,1.375-1.965,1.375-3.34V68.074
		C445.04,60.508,442.387,54.117,436.981,48.812z"/>
	<path fill="#2B347C" d="M579.399,21.39c-1.277-1.277-2.75-1.964-4.52-1.964s-3.34,0.687-4.617,1.964
		c-1.277,1.278-1.867,2.754-1.867,4.52c0,1.769,0.59,3.344,1.867,4.621s2.848,1.867,4.617,1.867s3.242-0.59,4.52-1.867
		c1.281-1.277,1.969-2.852,1.969-4.621C581.368,24.144,580.68,22.668,579.399,21.39z M571.243,42.519
		c-0.98,0.985-1.375,2.164-1.375,3.637v43.734c0,1.477,0.395,2.656,1.375,3.637c0.984,0.984,2.164,1.379,3.637,1.379
		c1.477,0,2.652-0.395,3.637-1.379c0.883-0.98,1.375-2.16,1.375-3.637V46.156c0-1.473-0.492-2.652-1.375-3.637
		c-0.984-0.883-2.16-1.375-3.637-1.375C573.407,41.144,572.227,41.636,571.243,42.519z"/>
</g>
</svg>
